<svg width="460" height="460" viewBox="0 0 460 460" fill="none" xmlns="http://www.w3.org/2000/svg">
<g clip-path="url(#clip0_3_177)">
<g clip-path="url(#clip1_3_177)">
<rect width="460" height="460" rx="80" fill="#161A1F"/>
<path fill-rule="evenodd" clip-rule="evenodd" d="M80 460H380C424.183 460 460 424.183 460 380V80C460 73.094 459.125 66.3924 457.48 60H180C113.726 60 60 113.726 60 180V457.48C66.3924 459.125 73.094 460 80 460Z" fill="#1C2229"/>
<g filter="url(#filter0_d_3_177)">
<path d="M120 280C120 191.634 191.634 120 280 120H460V380C460 424.183 424.183 460 380 460H120V280Z" fill="#273340"/>
</g>
<g filter="url(#filter1_d_3_177)">
<path d="M180 380C180 269.543 269.543 180 380 180H460V380C460 424.183 424.183 460 380 460H180V380Z" fill="#324456"/>
</g>
<g filter="url(#filter2_d_3_177)">
<path d="M240 460C240 338.497 338.497 240 460 240V240V380C460 424.183 424.183 460 380 460H240V460Z" fill="#3D546C"/>
</g>
</g>
</g>
<defs>
<filter id="filter0_d_3_177" x="60" y="60" width="460" height="460" filterUnits="userSpaceOnUse" color-interpolation-filters="sRGB">
<feFlood flood-opacity="0" result="BackgroundImageFix"/>
<feColorMatrix in="SourceAlpha" type="matrix" values="0 0 0 0 0 0 0 0 0 0 0 0 0 0 0 0 0 0 127 0" result="hardAlpha"/>
<feOffset/>
<feGaussianBlur stdDeviation="30"/>
<feComposite in2="hardAlpha" operator="out"/>
<feColorMatrix type="matrix" values="0 0 0 0 0 0 0 0 0 0 0 0 0 0 0 0 0 0 0.2 0"/>
<feBlend mode="normal" in2="BackgroundImageFix" result="effect1_dropShadow_3_177"/>
<feBlend mode="normal" in="SourceGraphic" in2="effect1_dropShadow_3_177" result="shape"/>
</filter>
<filter id="filter1_d_3_177" x="120" y="120" width="400" height="400" filterUnits="userSpaceOnUse" color-interpolation-filters="sRGB">
<feFlood flood-opacity="0" result="BackgroundImageFix"/>
<feColorMatrix in="SourceAlpha" type="matrix" values="0 0 0 0 0 0 0 0 0 0 0 0 0 0 0 0 0 0 127 0" result="hardAlpha"/>
<feOffset/>
<feGaussianBlur stdDeviation="30"/>
<feComposite in2="hardAlpha" operator="out"/>
<feColorMatrix type="matrix" values="0 0 0 0 0 0 0 0 0 0 0 0 0 0 0 0 0 0 0.2 0"/>
<feBlend mode="normal" in2="BackgroundImageFix" result="effect1_dropShadow_3_177"/>
<feBlend mode="normal" in="SourceGraphic" in2="effect1_dropShadow_3_177" result="shape"/>
</filter>
<filter id="filter2_d_3_177" x="180" y="180" width="340" height="340" filterUnits="userSpaceOnUse" color-interpolation-filters="sRGB">
<feFlood flood-opacity="0" result="BackgroundImageFix"/>
<feColorMatrix in="SourceAlpha" type="matrix" values="0 0 0 0 0 0 0 0 0 0 0 0 0 0 0 0 0 0 127 0" result="hardAlpha"/>
<feOffset/>
<feGaussianBlur stdDeviation="30"/>
<feComposite in2="hardAlpha" operator="out"/>
<feColorMatrix type="matrix" values="0 0 0 0 0 0 0 0 0 0 0 0 0 0 0 0 0 0 0.2 0"/>
<feBlend mode="normal" in2="BackgroundImageFix" result="effect1_dropShadow_3_177"/>
<feBlend mode="normal" in="SourceGraphic" in2="effect1_dropShadow_3_177" result="shape"/>
</filter>
<clipPath id="clip0_3_177">
<rect width="460" height="460" rx="80" fill="white"/>
</clipPath>
<clipPath id="clip1_3_177">
<rect width="460" height="460" fill="white"/>
</clipPath>
</defs>
</svg>
